<svg width="16" height="16" viewBox="0 0 16 16" fill="none" xmlns="http://www.w3.org/2000/svg">
<path d="M3.58333 14.0497C3.20739 14.0497 2.83563 13.9859 2.46805 13.8581C2.10046 13.7303 1.77778 13.522 1.5 13.2331C1.88889 13.0997 2.16667 12.9053 2.33333 12.6497C2.5 12.3942 2.58333 12.0497 2.58333 11.6164C2.58333 11.1303 2.75376 10.7171 3.0946 10.3768C3.43546 10.0366 3.84934 9.86641 4.33627 9.86641C4.8232 9.86641 5.23611 10.0366 5.575 10.3768C5.91389 10.7171 6.08333 11.1303 6.08333 11.6164C6.08333 12.3275 5.84167 12.9109 5.35833 13.3664C4.875 13.822 4.28333 14.0497 3.58333 14.0497ZM3.58333 13.0497C3.97222 13.0497 4.31944 12.9109 4.625 12.6331C4.93056 12.3553 5.08333 12.0164 5.08333 11.6164C5.08333 11.3942 5.01389 11.2136 4.875 11.0747C4.73611 10.9359 4.55556 10.8664 4.33333 10.8664C4.11111 10.8664 3.93056 10.9359 3.79167 11.0747C3.65278 11.2136 3.58333 11.3942 3.58333 11.6164C3.58333 12.0497 3.53611 12.3692 3.44167 12.5747C3.34722 12.7803 3.17222 12.9053 2.91667 12.9497C2.98333 12.9609 3.09444 12.9803 3.25 13.0081C3.40556 13.0359 3.51667 13.0497 3.58333 13.0497ZM7.41667 10.0997L5.91667 8.51641L12.1833 2.24975C12.3389 2.09419 12.5111 2.01364 12.7 2.00808C12.8889 2.00253 13.0667 2.08308 13.2333 2.24975L13.7167 2.73308C13.8833 2.89975 13.9639 3.0803 13.9583 3.27475C13.9528 3.46919 13.8722 3.64419 13.7167 3.79975L7.41667 10.0997Z" fill="white"/>
</svg>
