<svg width="35" height="35" viewBox="0 0 35 35" fill="none" xmlns="http://www.w3.org/2000/svg">
<path d="M7.83854 30.7343C7.01616 30.7343 6.20294 30.5946 5.39886 30.315C4.59476 30.0355 3.88889 29.5798 3.28125 28.9479C4.13194 28.6562 4.73958 28.2308 5.10417 27.6718C5.46875 27.1128 5.65104 26.3593 5.65104 25.4114C5.65104 24.348 6.02384 23.4442 6.76944 22.6998C7.51506 21.9554 8.42044 21.5833 9.48558 21.5833C10.5507 21.5833 11.454 21.9554 12.1953 22.6998C12.9366 23.4442 13.3073 24.348 13.3073 25.4114C13.3073 26.9669 12.7786 28.243 11.7214 29.2395C10.6641 30.236 9.36979 30.7343 7.83854 30.7343ZM7.83854 28.5468C8.68924 28.5468 9.44878 28.243 10.1172 27.6354C10.7856 27.0277 11.1198 26.2864 11.1198 25.4114C11.1198 24.9253 10.9679 24.5303 10.6641 24.2265C10.3602 23.9227 9.96528 23.7708 9.47917 23.7708C8.99306 23.7708 8.59809 23.9227 8.29427 24.2265C7.99045 24.5303 7.83854 24.9253 7.83854 25.4114C7.83854 26.3593 7.73524 27.0581 7.52865 27.5077C7.32205 27.9574 6.93924 28.2308 6.38021 28.3281C6.52604 28.3524 6.7691 28.3949 7.10937 28.4557C7.44965 28.5164 7.69271 28.5468 7.83854 28.5468ZM16.224 22.0937L12.9427 18.6301L26.651 4.92181C26.9913 4.58153 27.3681 4.40532 27.7812 4.39317C28.1944 4.38101 28.5833 4.55723 28.9479 4.92181L30.0052 5.9791C30.3698 6.34369 30.546 6.73865 30.5339 7.164C30.5217 7.58935 30.3455 7.97216 30.0052 8.31244L16.224 22.0937Z" fill="black"/>
</svg>
