<svg width="14" height="14" viewBox="0 0 14 14" fill="none" xmlns="http://www.w3.org/2000/svg">
<g id="calendar_today_FILL1_wght400_GRAD0_opsz48 1">
<path id="Vector" d="M2.625 12.8332C2.39167 12.8332 2.1875 12.7457 2.0125 12.5707C1.8375 12.3957 1.75 12.1915 1.75 11.9582V2.9165C1.75 2.68317 1.8375 2.479 2.0125 2.304C2.1875 2.129 2.39167 2.0415 2.625 2.0415H3.57292V1.1665H4.52083V2.0415H9.47917V1.1665H10.4271V2.0415H11.375C11.6083 2.0415 11.8125 2.129 11.9875 2.304C12.1625 2.479 12.25 2.68317 12.25 2.9165V11.9582C12.25 12.1915 12.1625 12.3957 11.9875 12.5707C11.8125 12.7457 11.6083 12.8332 11.375 12.8332H2.625ZM2.625 11.9582H11.375V5.68734H2.625V11.9582Z" fill="#5B5B5B"/>
</g>
</svg>
