<svg width="26" height="26" viewBox="0 0 26 26" fill="none" xmlns="http://www.w3.org/2000/svg">
<g id="schedule_FILL0_wght400_GRAD0_opsz48 1">
<path id="Vector" d="M16.9813 18.2269L18.2001 17.0082L13.8938 12.6748V7.23109H12.2688V13.3248L16.9813 18.2269ZM13.0001 23.8332C11.5195 23.8332 10.1202 23.5488 8.80216 22.98C7.48411 22.4113 6.33307 21.6349 5.34904 20.6509C4.36501 19.6669 3.58862 18.5158 3.01987 17.1978C2.45112 15.8797 2.16675 14.4804 2.16675 12.9998C2.16675 11.5193 2.45112 10.12 3.01987 8.80192C3.58862 7.48386 4.36501 6.33282 5.34904 5.3488C6.33307 4.36477 7.48411 3.58838 8.80216 3.01963C10.1202 2.45088 11.5195 2.1665 13.0001 2.1665C14.4806 2.1665 15.8799 2.45088 17.198 3.01963C18.5161 3.58838 19.6671 4.36477 20.6511 5.3488C21.6351 6.33282 22.4115 7.48386 22.9803 8.80192C23.549 10.12 23.8334 11.5193 23.8334 12.9998C23.8334 14.4804 23.549 15.8797 22.9803 17.1978C22.4115 18.5158 21.6351 19.6669 20.6511 20.6509C19.6671 21.6349 18.5161 22.4113 17.198 22.98C15.8799 23.5488 14.4806 23.8332 13.0001 23.8332ZM13.0001 22.2082C15.5279 22.2082 17.6945 21.3054 19.5001 19.4998C21.3056 17.6943 22.2084 15.5276 22.2084 12.9998C22.2084 10.4721 21.3056 8.30539 19.5001 6.49984C17.6945 4.69428 15.5279 3.7915 13.0001 3.7915C10.4723 3.7915 8.30564 4.69428 6.50008 6.49984C4.69453 8.30539 3.79175 10.4721 3.79175 12.9998C3.79175 15.5276 4.69453 17.6943 6.50008 19.4998C8.30564 21.3054 10.4723 22.2082 13.0001 22.2082Z" fill="#767676"/>
</g>
</svg>
