<svg width="39" height="36" viewBox="0 0 39 36" fill="none" xmlns="http://www.w3.org/2000/svg">
<g id="notificacoes">
<path id="Vector" d="M6.5 28.5V26.25H9.9125V14.775C9.9125 12.675 10.5828 10.8063 11.9234 9.16875C13.2641 7.53125 15.0313 6.5 17.225 6.075V4.9875C17.225 4.4125 17.4484 3.9375 17.8953 3.5625C18.3422 3.1875 18.8771 3 19.5 3C20.1229 3 20.6578 3.1875 21.1047 3.5625C21.5516 3.9375 21.775 4.4125 21.775 4.9875V6.075C23.9688 6.5 25.7427 7.53125 27.0969 9.16875C28.451 10.8063 29.1281 12.675 29.1281 14.775V26.25H32.5V28.5H6.5ZM19.5 33C18.6333 33 17.875 32.7063 17.225 32.1188C16.575 31.5313 16.25 30.825 16.25 30H22.75C22.75 30.825 22.4318 31.5313 21.7953 32.1188C21.1589 32.7063 20.3938 33 19.5 33Z" fill="white"/>
</g>
</svg>
